<svg width="81" height="81" viewBox="0 0 81 81" fill="none" xmlns="http://www.w3.org/2000/svg">
<path d="M14.8965 52.9473H22.4112M57.4796 52.9473H64.9942" stroke="#333333" stroke-width="3" stroke-linecap="round"/>
<path d="M75.0137 34.9082V39.918H70.004V62.4619C70.004 65.2223 67.7546 67.4717 64.9942 67.4717V74.9863H59.9844V67.4717H19.9063V74.9863H14.8965V67.4717C12.1337 67.4717 9.88678 65.2223 9.88678 62.4619V39.918H4.87701V34.9082H10.6533L16.9506 18.118C17.312 17.1653 17.954 16.3447 18.7916 15.7647C19.6293 15.1846 20.6233 14.8723 21.6422 14.8691H39.9454M65.6906 37.4131H15.0669M15.8965 47.9375V42.4229H40.4454H64.9942V47.9375" stroke="#333333" stroke-width="3" stroke-linecap="round"/>
<path d="M50.045 52.9598H30.006M47.46 19.8789L57.4795 29.8984L77.5186 9.85938" stroke="#333333" stroke-width="3" stroke-linecap="round"/>
</svg>
