<svg preserveAspectRatio="none" width="100%" height="100%" overflow="visible" style="display: block;" viewBox="0 0 105 105" fill="none" xmlns="http://www.w3.org/2000/svg">
<g id="Group 1000003480">
<circle id="Ellipse 12" cx="52.5" cy="52.5" r="52.5" fill="var(--fill-0, #4253AD)"/>
<g id="material-symbols-light:enterprise-outline">
<path id="Vector" d="M52.2346 58.2862C53.0859 58.2862 53.8026 57.9943 54.3849 57.4107C54.9686 56.8284 55.2604 56.1116 55.2604 55.2604C55.2604 54.4091 54.9686 53.6924 54.3849 53.1101C53.8013 52.5278 53.0845 52.2359 52.2346 52.2346C51.3847 52.2333 50.6679 52.5251 50.0843 53.1101C49.5006 53.6924 49.2088 54.4091 49.2088 55.2604C49.2088 56.1116 49.5006 56.8284 50.0843 57.4107C50.6679 57.993 51.3847 58.2848 52.2346 58.2862ZM37.3397 68.3721C36.4104 68.3721 35.6352 68.0615 35.0139 67.4402C34.3926 66.8189 34.0812 66.0429 34.0799 65.1123V45.4084C34.0799 44.4792 34.3912 43.7039 35.0139 43.0826C35.6365 42.4613 36.4111 42.15 37.3377 42.1487H46.183V39.3548C46.183 38.4269 46.4944 37.6517 47.117 37.029C47.7396 36.4064 48.5149 36.0957 49.4428 36.0971H55.0284C55.9563 36.0971 56.7316 36.4077 57.3542 37.029C57.9769 37.6503 58.2875 38.4256 58.2862 39.3548V42.1487H67.1315C68.0595 42.1487 68.8341 42.46 69.4553 43.0826C70.0766 43.7053 70.388 44.4805 70.3893 45.4084V65.1144C70.3893 66.0423 70.078 66.8175 69.4553 67.4402C68.8327 68.0628 68.0581 68.3735 67.1315 68.3721H37.3397ZM37.3397 66.3549H67.1315C67.4408 66.3549 67.7253 66.2258 67.9848 65.9676C68.2444 65.7094 68.3735 65.4243 68.3721 65.1123V45.4084C68.3721 45.0978 68.243 44.8127 67.9848 44.5531C67.7266 44.2936 67.4422 44.1645 67.1315 44.1658H37.3377C37.0284 44.1658 36.7439 44.2949 36.4844 44.5531C36.2248 44.8113 36.0957 45.0964 36.0971 45.4084V65.1144C36.0971 65.4237 36.2262 65.7081 36.4844 65.9676C36.7426 66.2272 37.027 66.3563 37.3377 66.3549M48.2002 42.1487H56.269V39.3548C56.269 39.0455 56.1399 38.7611 55.8817 38.5016C55.6235 38.242 55.3391 38.1129 55.0284 38.1143H49.4408C49.1315 38.1143 48.8471 38.2434 48.5875 38.5016C48.328 38.7598 48.1989 39.0442 48.2002 39.3548V42.1487Z" fill="var(--fill-0, white)"/>
</g>
</g>
</svg>
