<svg preserveAspectRatio="none" width="100%" height="100%" overflow="visible" style="display: block;" viewBox="0 0 80.1562 80.1562" fill="none" xmlns="http://www.w3.org/2000/svg">
<g id="qlementine-icons:education-24" clip-path="url(#clip0_2_21)">
<path id="Vector" fill-rule="evenodd" clip-rule="evenodd" d="M37.7402 6.84668C39.2678 6.61492 40.8216 6.61492 42.3492 6.84668C44.0692 7.11387 45.7225 7.7785 48.4945 8.89066L72.508 18.5762C74.3583 19.3243 75.8479 19.9255 76.95 20.4799C78.0087 21.021 79.0675 21.6923 79.6119 22.751C79.9826 23.4691 80.1663 24.2539 80.1663 25.0388V51.7576C80.1663 52.2004 79.9903 52.6252 79.6772 52.9384C79.364 53.2515 78.9392 53.4275 78.4963 53.4275C78.0535 53.4275 77.6287 53.2515 77.3155 52.9384C77.0024 52.6252 76.8264 52.2004 76.8264 51.7576V29.6478C75.7443 30.1888 74.2915 30.7733 72.518 31.4914L70.1534 32.4432V51.7475C70.1534 58.16 66.012 62.769 60.4011 65.7081C54.7901 68.6471 47.3757 70.1167 40.0948 70.1167C32.814 70.1167 25.4329 68.6572 19.822 65.7081C14.1776 62.769 10.0362 58.1266 10.0362 51.7475V32.4432L7.66828 31.488C5.81801 30.7399 4.32844 30.1388 3.22629 29.581C2.16756 29.0433 1.11217 28.372 0.564434 27.3099C0.201071 26.602 0.0115452 25.8178 0.0115452 25.0221C0.0115452 24.2264 0.201071 23.4422 0.564434 22.7343C1.10883 21.6789 2.16756 21.0076 3.22629 20.4699C4.32176 19.9121 5.81467 19.3076 7.66828 18.5629L31.6484 8.8773C34.4104 7.7618 36.0569 7.09717 37.7937 6.82998L37.7402 6.84668ZM41.8148 10.1431C40.6307 9.95994 39.4254 9.95994 38.2412 10.1431C36.9487 10.3435 35.6762 10.8445 32.6303 12.0702L8.91738 21.6221C6.97025 22.407 5.61762 22.9581 4.67578 23.439C3.67383 23.95 3.49014 24.2172 3.46676 24.2606C3.34545 24.4967 3.28218 24.7583 3.28218 25.0238C3.28218 25.2892 3.34545 25.5508 3.46676 25.7869C3.49014 25.8304 3.67383 26.1009 4.67578 26.6085C5.6243 27.0928 6.97693 27.6439 8.91738 28.4254L32.6303 37.9774C35.6595 39.1997 36.9387 39.7041 38.2412 39.9045C39.4254 40.0876 40.6307 40.0876 41.8148 39.9045C43.1074 39.7041 44.3798 39.2031 47.4258 37.9807L71.1387 28.4288C73.0858 27.6439 74.4418 27.0928 75.3803 26.6119C76.3822 26.1009 76.5659 25.8337 76.5893 25.7903C76.7106 25.5542 76.7739 25.2926 76.7739 25.0271C76.7739 24.7617 76.7106 24.5001 76.5893 24.264C76.5659 24.2205 76.3822 23.9534 75.3803 23.4424C74.4318 22.9581 73.0758 22.4104 71.1387 21.6255L47.4258 12.0735C44.3965 10.8512 43.1174 10.3502 41.8148 10.1498V10.1431ZM48.4611 41.1703L66.7635 33.7892V51.7576C66.7635 56.4667 63.7977 60.174 58.7812 62.779C53.7715 65.3975 46.9582 66.7869 40.0447 66.7869C33.1312 66.7869 26.318 65.3875 21.3082 62.779C16.2984 60.1673 13.326 56.4667 13.326 51.7576V33.8226L31.5949 41.2037C34.357 42.3192 36.0035 42.9838 37.7402 43.251C39.2632 43.4848 40.8162 43.4848 42.3492 43.251C44.0692 42.9838 45.7225 42.3192 48.4945 41.207L48.4611 41.1703Z" fill="var(--fill-0, #333333)"/>
</g>
<defs>
<clipPath id="clip0_2_21">
<rect width="80.1562" height="80.1562" fill="white"/>
</clipPath>
</defs>
</svg>
