<svg preserveAspectRatio="none" width="100%" height="100%" overflow="visible" style="display: block;" viewBox="0 0 69.7969 69.7974" fill="none" xmlns="http://www.w3.org/2000/svg">
<g id="Group">
<path id="Vector" d="M64.957 68.2974V19.8196C64.957 16.1524 64.957 14.3222 63.9016 12.7725C62.8496 11.2261 60.9091 10.2108 57.0249 8.17685L52.0819 5.59181C45.9901 2.39892 42.9408 0.802479 40.5929 1.79107C38.2383 2.77967 38.2383 5.65861 38.2383 11.4098V24.8794" stroke="var(--stroke-0, #333333)" stroke-width="3" stroke-linejoin="round"/>
<path id="Vector_2" d="M68.2969 68.2974H1.5M64.957 21.5396H58.2773M64.957 31.5591H58.2773M64.957 41.5786H58.2773" stroke="var(--stroke-0, #333333)" stroke-width="3" stroke-linecap="round" stroke-linejoin="round"/>
<path id="Vector_3" d="M21.5391 38.2388C21.5391 31.9398 21.5391 28.7937 23.4962 26.8366C25.4534 24.8794 28.5995 24.8794 34.8984 24.8794C41.1974 24.8794 44.3435 24.8794 46.3007 26.8366C48.2578 28.7937 48.2578 31.9398 48.2578 38.2388V68.2974H21.5391V38.2388Z" stroke="var(--stroke-0, #333333)" stroke-width="3" stroke-linejoin="round"/>
<path id="Vector_4" d="M33.2285 38.2388H36.5684M33.2285 48.2583H36.5684" stroke="var(--stroke-0, #333333)" stroke-width="3" stroke-linecap="round"/>
<path id="Vector_5" d="M6.50977 48.2583C9.27658 48.2583 11.5195 45.2677 11.5195 41.5786C11.5195 37.8895 9.27658 34.8989 6.50977 34.8989C3.74295 34.8989 1.5 37.8895 1.5 41.5786C1.5 45.2677 3.74295 48.2583 6.50977 48.2583Z" stroke="var(--stroke-0, #333333)" stroke-width="3"/>
<path id="Vector_6" d="M6.50977 48.2583V68.2974" stroke="var(--stroke-0, #333333)" stroke-width="3" stroke-linecap="round"/>
</g>
</svg>
