<svg preserveAspectRatio="none" width="100%" height="100%" overflow="visible" style="display: block;" viewBox="0 0 60.0865 61.7855" fill="none" xmlns="http://www.w3.org/2000/svg">
<g id="Group">
<path id="Vector" d="M25.6881 27.7178C26.7927 27.7178 27.6881 26.8224 27.6881 25.7178V17.0284C27.6881 15.9238 28.5836 15.0284 29.6881 15.0284H30.3678C31.4724 15.0284 32.3678 15.9238 32.3678 17.0284V25.7178C32.3678 26.8224 33.2633 27.7178 34.3678 27.7178H43.0573C44.1618 27.7178 45.0573 28.6133 45.0573 29.7178V30.3975C45.0573 31.5021 44.1618 32.3975 43.0573 32.3975H34.3676C33.2631 32.3975 32.3677 33.2928 32.3676 34.3973L32.3664 43.0872C32.3663 44.1917 31.4709 45.087 30.3664 45.087H29.6865C28.5819 45.087 27.6865 44.1915 27.6865 43.087V34.3975C27.6865 33.293 26.791 32.3975 25.6865 32.3975H16.997C15.8924 32.3975 14.997 31.5021 14.997 30.3975V29.7178C14.997 28.6133 15.8924 27.7178 16.997 27.7178H25.6881Z" fill="var(--fill-0, #333333)"/>
<path id="Vector_2" fill-rule="evenodd" clip-rule="evenodd" d="M13.0332 51.7516C17.1212 55.4438 21.5999 58.4931 26.6564 60.8978C29.365 62.1836 32.578 62.0667 35.1747 60.5855C39.5549 58.0873 43.3673 55.0798 47.0528 51.7516C54.8664 44.6945 59.4203 34.9839 59.7192 24.7423L60.0682 12.8007C60.1083 11.4113 60.0699 8.3487 60.0699 8.3487C58.3153 8.07204 56.5548 7.83486 54.7896 7.63731C49.3289 6.9827 43.8917 6.3331 39.1207 3.41575L35.7191 1.33669C34.2743 0.462268 32.6177 0 30.9289 0C29.2401 0 27.5835 0.462268 26.1387 1.33669L22.8807 3.32891C17.4251 6.66207 10.7771 7.2933 4.34291 7.9045C2.88507 8.0431 1.43725 8.1817 0.0178125 8.3487C0.0178125 8.3487 -0.0222656 11.4297 0.0178125 12.8391L0.366826 24.7423C0.665742 34.9839 5.21962 44.6945 13.0332 51.7516ZM3.34096 11.3562C3.34096 11.8906 3.34597 12.3832 3.35766 12.7423L3.705 24.6455C3.9772 33.9469 8.11359 42.8075 15.2709 49.2735C19.1317 52.7586 23.3416 55.6225 28.0909 57.8802C28.9461 58.283 29.8852 58.4754 30.8299 58.4414C31.7746 58.4075 32.6974 58.148 33.5215 57.6849C37.6211 55.347 41.2348 52.5064 44.8151 49.2735C51.9724 42.8075 56.1088 33.9486 56.381 24.6455L56.73 12.7039C56.7401 12.3298 56.7467 11.8038 56.7467 11.2427C55.9652 11.1436 55.1692 11.0456 54.3587 10.9488L54.2686 10.9387C52.4135 10.7304 50.5638 10.4771 48.7211 10.1789C44.9738 9.54436 41.0528 8.51068 37.379 6.2663L33.9773 4.18558C33.057 3.63164 32.0031 3.33895 30.9289 3.33895C29.8547 3.33895 28.8008 3.63164 27.8805 4.18558L24.6224 6.1778C20.7482 8.54408 16.4732 9.66626 12.3535 10.3292C9.79855 10.74 7.04651 11.0022 4.46982 11.2494L3.34096 11.3562Z" fill="var(--fill-0, #333333)"/>
</g>
</svg>
