<svg preserveAspectRatio="none" width="100%" height="100%" overflow="visible" style="display: block;" viewBox="0 0 59.793 65.6183" fill="none" xmlns="http://www.w3.org/2000/svg">
<g id="Group">
<path id="Vector" d="M14.459 40.2081C7.8561 41.9214 3.81823 48.561 5.63177 55.1238C7.43528 61.6532 14.2953 65.4172 20.8715 63.7072C27.4743 61.9939 31.5089 55.351 29.6987 48.7882C27.8952 42.2588 21.0351 38.4948 14.459 40.2048" stroke="var(--stroke-0, #333333)" stroke-width="3"/>
<path id="Vector_2" d="M20.7112 41.1266L13.5238 15.1092C13.0992 13.6062 12.2928 12.2387 11.1832 11.1396C10.0736 10.0405 8.69844 9.24724 7.19147 8.83695L1.50038 7.26055M57.9661 39.0706C57.6336 39.0315 57.2967 39.0594 56.9752 39.1527M56.9785 39.1527L26.6561 47.0347" stroke="var(--stroke-0, #333333)" stroke-width="3" stroke-linecap="round"/>
<path id="Vector_3" d="M22.7585 20.6366C21.1387 14.7751 20.3304 11.8428 21.7064 9.53492C23.0791 7.22375 26.1017 6.43888 32.1468 4.86582L38.5593 3.20258C44.6044 1.63285 47.627 0.844647 50.0083 2.17724C52.3896 3.51318 53.2012 6.44222 54.8176 12.307L56.5377 18.5258C58.1575 24.3872 58.9691 27.3196 57.5931 29.6308C56.217 31.9386 53.1945 32.7268 47.1494 34.2965L40.7369 35.9631C34.6917 37.5328 31.6692 38.3177 29.2879 36.9851C26.9066 35.6492 26.0983 32.7201 24.4785 26.8587L22.7585 20.6366Z" stroke="var(--stroke-0, #333333)" stroke-width="3"/>
</g>
</svg>
