<svg preserveAspectRatio="none" width="100%" height="100%" overflow="visible" style="display: block;" viewBox="0 0 105 105" fill="none" xmlns="http://www.w3.org/2000/svg">
<g id="Group 1000003480">
<circle id="Ellipse 12" cx="52.5" cy="52.5" r="52.5" fill="var(--fill-0, #4253AD)"/>
<g id="carbon:security-services">
<path id="Vector" d="M73.4151 64.3377V61.312H70.2365C70.0402 60.3653 69.6643 59.465 69.1291 58.6599L71.3833 56.4056L69.244 54.2664L66.9898 56.5206C66.1847 55.9854 65.2844 55.6095 64.3377 55.4132V52.2346H61.312V55.4132C60.3653 55.6095 59.465 55.9854 58.6599 56.5206L56.4056 54.2664L54.2664 56.4056L56.5206 58.6599C55.9854 59.465 55.6095 60.3653 55.4132 61.312H52.2346V64.3377H55.4132C55.6095 65.2844 55.9854 66.1847 56.5206 66.9898L54.2664 69.244L56.4056 71.3833L58.6599 69.1291C59.465 69.6643 60.3653 70.0402 61.312 70.2365V73.4151H64.3377V70.2365C65.2844 70.0402 66.1847 69.6643 66.9898 69.1291L69.244 71.3833L71.3833 69.244L69.1291 66.9898C69.6643 66.1847 70.0402 65.2844 70.2365 64.3377H73.4151ZM62.8248 67.3635C61.9272 67.3635 61.0497 67.0973 60.3033 66.5986C59.5569 66.0999 58.9752 65.3911 58.6317 64.5617C58.2881 63.7324 58.1983 62.8198 58.3734 61.9394C58.5485 61.059 58.9808 60.2503 59.6155 59.6155C60.2503 58.9808 61.059 58.5485 61.9394 58.3734C62.8198 58.1983 63.7324 58.2881 64.5617 58.6317C65.3911 58.9752 66.0999 59.5569 66.5986 60.3033C67.0973 61.0497 67.3635 61.9272 67.3635 62.8248C67.3623 64.0282 66.8838 65.1819 66.0328 66.0328C65.1819 66.8838 64.0282 67.3623 62.8248 67.3635Z" fill="var(--fill-0, white)"/>
<path id="Vector_2" d="M49.2088 68.3726L44.3161 65.7629C42.137 64.603 40.3146 62.8719 39.0444 60.7552C37.7742 58.6386 37.104 56.2161 37.1057 53.7475V34.0799H67.3635V49.2088H70.3893V34.0799C70.3893 33.2774 70.0705 32.5078 69.5031 31.9403C68.9356 31.3729 68.166 31.0541 67.3635 31.0541H37.1057C36.3032 31.0541 35.5336 31.3729 34.9661 31.9403C34.3987 32.5078 34.0799 33.2774 34.0799 34.0799V53.7475C34.0764 56.7648 34.8947 59.726 36.447 62.3133C37.9994 64.9006 40.2271 67.0163 42.891 68.4331L49.2088 71.8023V68.3726Z" fill="var(--fill-0, white)"/>
</g>
</g>
</svg>
