<svg preserveAspectRatio="none" width="100%" height="100%" overflow="visible" style="display: block;" viewBox="0 0 43.3696 31.2664" fill="none" xmlns="http://www.w3.org/2000/svg">
<g id="Group">
<path id="Vector" d="M1.51289 15.6332C1.51289 9.96693 1.51289 7.1348 2.87248 5.09945C3.46132 4.21806 4.21806 3.46132 5.09946 2.87248C7.1348 1.51289 9.96492 1.51289 15.6332 1.51289H27.7364C33.4026 1.51289 36.2348 1.51289 38.2701 2.87248C39.1515 3.46132 39.9083 4.21806 40.4971 5.09945C41.8567 7.1348 41.8567 9.96492 41.8567 15.6332C41.8567 21.3015 41.8567 24.1316 40.4971 26.167C39.9083 27.0484 39.1515 27.8051 38.2701 28.394C36.2348 29.7535 33.4047 29.7535 27.7364 29.7535H15.6332C9.96693 29.7535 7.1348 29.7535 5.09946 28.394C4.21806 27.8051 3.46132 27.0484 2.87248 26.167C1.51289 24.1316 1.51289 21.3015 1.51289 15.6332Z" stroke="var(--stroke-0, white)" stroke-width="3.02578" stroke-linecap="round" stroke-linejoin="round"/>
<path id="Vector_2" d="M25.7192 12.6922L26.9012 11.5424C28.2447 10.2352 28.9184 9.58165 29.7535 9.58165C30.5887 9.58165 31.2604 10.2352 32.6058 11.5424L33.7879 12.6922M25.7192 18.5743L26.9012 19.7241C28.2447 21.0312 28.9184 21.6848 29.7535 21.6848C30.5887 21.6848 31.2604 21.0312 32.6058 19.7241L33.7879 18.5743M9.58165 15.6332H17.6504" stroke="var(--stroke-0, white)" stroke-width="3.02578" stroke-linecap="round" stroke-linejoin="round"/>
</g>
</svg>
