<svg preserveAspectRatio="none" width="100%" height="100%" overflow="visible" style="display: block;" viewBox="0 0 105 105" fill="none" xmlns="http://www.w3.org/2000/svg">
<g id="Group 1000003479">
<circle id="Ellipse 12" cx="52.5" cy="52.5" r="52.5" fill="var(--fill-0, #4253AD)"/>
<g id="circum:mobile-2">
<path id="Vector" d="M52.2346 66.2278C53.3487 66.2278 54.2518 65.3247 54.2518 64.2107C54.2518 63.0966 53.3487 62.1935 52.2346 62.1935C51.1205 62.1935 50.2174 63.0966 50.2174 64.2107C50.2174 65.3247 51.1205 66.2278 52.2346 66.2278Z" fill="var(--fill-0, white)"/>
<path id="Vector_2" d="M61.7699 72.2794H42.6993C41.4338 72.2039 40.2492 71.6317 39.4034 70.6873C38.5576 69.7429 38.1189 68.5026 38.1829 67.2364V37.2328C38.1189 35.9666 38.5576 34.7263 39.4034 33.7819C40.2492 32.8375 41.4338 32.2653 42.6993 32.1898H61.7699C63.0354 32.2653 64.22 32.8375 65.0658 33.7819C65.9116 34.7263 66.3503 35.9666 66.2863 37.2328V67.2364C66.3503 68.5026 65.9116 69.7429 65.0658 70.6873C64.22 71.6317 63.0354 72.2039 61.7699 72.2794ZM42.6993 34.207C41.9697 34.2841 41.2993 34.644 40.8321 35.2097C40.3648 35.7754 40.1379 36.5017 40.2 37.2328V67.2364C40.1379 67.9675 40.3648 68.6938 40.8321 69.2595C41.2993 69.8252 41.9697 70.1852 42.6993 70.2622H61.7699C62.4995 70.1852 63.1699 69.8252 63.6371 69.2595C64.1044 68.6938 64.3313 67.9675 64.2692 67.2364V37.2328C64.3313 36.5017 64.1044 35.7754 63.6371 35.2097C63.1699 34.644 62.4995 34.2841 61.7699 34.207H42.6993Z" fill="var(--fill-0, white)"/>
</g>
</g>
</svg>
