<svg preserveAspectRatio="none" width="100%" height="100%" overflow="visible" style="display: block;" viewBox="0 0 105 105" fill="none" xmlns="http://www.w3.org/2000/svg">
<g id="Group 1000003479">
<circle id="Ellipse 12" cx="52.5" cy="52.5" r="52.5" fill="var(--fill-0, #4253AD)"/>
<g id="material-symbols-light:cloud-outline">
<path id="Vector" d="M41.1401 66.3549C38.624 66.3549 36.4824 65.4768 34.7153 63.7205C32.9469 61.9669 32.0627 59.8307 32.0627 57.3119C32.0627 55.0002 32.8528 52.9487 34.4329 51.1574C36.013 49.3662 37.9771 48.404 40.3251 48.2708C40.7783 45.3325 42.1298 42.9051 44.3797 40.9888C46.6295 39.0724 49.2478 38.1143 52.2346 38.1143C55.5993 38.1143 58.4576 39.2903 60.8097 41.6423C63.1617 43.9944 64.3377 46.8527 64.3377 50.2174V52.2346H65.5803C67.5114 52.2965 69.1319 53.0058 70.4418 54.3627C71.7516 55.7196 72.4065 57.3636 72.4065 59.2948C72.4065 61.273 71.7247 62.9445 70.3611 64.3095C68.9948 65.6731 67.3232 66.3549 65.3463 66.3549H41.1401ZM41.1401 64.3377H65.3463C66.7584 64.3377 67.9519 63.8502 68.9268 62.8753C69.9018 61.9003 70.3893 60.7068 70.3893 59.2948C70.3893 57.8827 69.9018 56.6892 68.9268 55.7143C67.9519 54.7393 66.7584 54.2518 65.3463 54.2518H62.3205V50.2174C62.3205 47.427 61.3368 45.048 59.3694 43.0806C57.402 41.1132 55.0237 40.1301 52.2346 40.1315C49.4455 40.1328 47.0672 41.1165 45.0998 43.0826C43.1324 45.0487 42.1487 47.427 42.1487 50.2174H41.1401C39.1901 50.2174 37.5259 50.9066 36.1475 52.285C34.7691 53.6634 34.0799 55.3276 34.0799 57.2776C34.0799 59.2275 34.7691 60.8917 36.1475 62.2701C37.5259 63.6485 39.1901 64.3377 41.1401 64.3377Z" fill="var(--fill-0, white)"/>
</g>
</g>
</svg>
