<svg preserveAspectRatio="none" width="100%" height="100%" overflow="visible" style="display: block;" viewBox="0 0 105 105" fill="none" xmlns="http://www.w3.org/2000/svg">
<g id="Group 1000003479">
<circle id="Ellipse 12" cx="52.5" cy="52.5" r="52.5" fill="var(--fill-0, #4253AD)"/>
<g id="oui:nav-data">
<path id="Vector" d="M50.9335 31.6351C40.6307 31.6351 32.561 36.2675 32.561 42.186V60.9489C32.561 66.8673 40.6277 71.5028 50.9305 71.5028C61.2333 71.5028 69.303 66.8673 69.303 60.9489V42.189C69.303 36.2706 61.2333 31.6381 50.9305 31.6381M50.9305 33.9831C59.6175 33.9831 66.955 37.7411 66.955 42.189C66.955 46.6369 59.6175 50.398 50.9305 50.398C42.2435 50.398 34.9029 46.6399 34.9029 42.189C34.9029 37.7381 42.2435 33.98 50.9335 33.98M66.9581 60.9489C66.9581 65.3998 59.6205 69.1578 50.9335 69.1578C42.2465 69.1578 34.9059 65.3998 34.9059 60.9519V56.8066C38.0316 60.0078 43.9712 62.1229 50.9335 62.1229C57.8958 62.1229 63.8355 60.0078 66.9581 56.8066V60.9489ZM66.9581 51.572C66.9581 56.0199 59.6205 59.7779 50.9335 59.7779C42.2465 59.7779 34.9059 56.0199 34.9059 51.572V47.4206C38.0316 50.6188 43.9712 52.7369 50.9335 52.7369C57.8958 52.7369 63.8355 50.6188 66.9581 47.4206V51.572Z" fill="var(--fill-0, white)"/>
</g>
</g>
</svg>
