<svg preserveAspectRatio="none" width="100%" height="100%" overflow="visible" style="display: block;" viewBox="0 0 54 54" fill="none" xmlns="http://www.w3.org/2000/svg">
<g id="Group 27">
<circle id="Ellipse 2" cx="27" cy="27" r="27" fill="var(--fill-0, #4253AD)"/>
<g id="jam:arrow-up">
<path id="Vector" d="M32.3626 25.1986L26.7667 19.6027C26.5087 19.3355 26.3659 18.9777 26.3691 18.6062C26.3723 18.2348 26.5213 17.8795 26.784 17.6168C27.0467 17.3542 27.402 17.2052 27.7734 17.2019C28.1449 17.1987 28.5027 17.3415 28.7699 17.5996L36.784 25.6137C36.916 25.7449 37.0208 25.901 37.0922 26.0729C37.1637 26.2447 37.2005 26.4291 37.2005 26.6152C37.2005 26.8014 37.1637 26.9857 37.0922 27.1576C37.0208 27.3295 36.916 27.4856 36.784 27.6168L28.7699 35.6309C28.5015 35.8826 28.1457 36.02 27.7779 36.014C27.41 36.008 27.0588 35.8592 26.7988 35.5989C26.5387 35.3386 26.3901 34.9874 26.3844 34.6195C26.3786 34.2516 26.5163 33.8959 26.7682 33.6277L32.364 28.0319L18.7838 28.0319C18.4081 28.0319 18.0478 27.8826 17.7821 27.617C17.5164 27.3513 17.3672 26.991 17.3672 26.6152C17.3672 26.2395 17.5164 25.8792 17.7821 25.6135C18.0478 25.3478 18.4081 25.1986 18.7838 25.1986L32.3626 25.1986Z" fill="var(--fill-0, white)"/>
</g>
</g>
</svg>
