<svg preserveAspectRatio="none" width="100%" height="100%" overflow="visible" style="display: block;" viewBox="0 0 80.1562 80.1562" fill="none" xmlns="http://www.w3.org/2000/svg">
<g id="iconoir:shopping-bag">
<path id="Vector" d="M46.7578 16.6992C46.7578 14.9277 46.0541 13.2287 44.8014 11.976C43.5487 10.7233 41.8497 10.0195 40.0781 10.0195C38.3066 10.0195 36.6076 10.7233 35.3549 11.976C34.1022 13.2287 33.3984 14.9277 33.3984 16.6992M64.3254 32.3831L68.9511 62.4417C69.0974 63.3931 69.0364 64.3648 68.7722 65.2904C68.508 66.216 68.0469 67.0735 67.4204 67.8043C66.794 68.5351 66.017 69.1219 65.1427 69.5244C64.2684 69.927 63.3174 70.1359 62.3549 70.1367H17.8014C16.8383 70.1368 15.8865 69.9287 15.0114 69.5265C14.1363 69.1244 13.3585 68.5377 12.7313 67.8068C12.1041 67.0759 11.6424 66.218 11.3779 65.292C11.1133 64.3659 11.0521 63.3936 11.1985 62.4417L15.8242 32.3831C16.0668 30.8054 16.8665 29.3666 18.0783 28.3276C19.2902 27.2885 20.8341 26.7178 22.4304 26.7188H57.7259C59.3216 26.7186 60.8647 27.2896 62.0759 28.3287C63.287 29.3677 64.0828 30.8059 64.3254 32.3831Z" stroke="var(--stroke-0, #333333)" stroke-width="3" stroke-linecap="round" stroke-linejoin="round"/>
</g>
</svg>
