<svg preserveAspectRatio="none" width="100%" height="100%" overflow="visible" style="display: block;" viewBox="0 0 80.1562 80.1562" fill="none" xmlns="http://www.w3.org/2000/svg">
<g id="material-symbols-light:finance-mode-outline-rounded">
<path id="Vector" d="M29.0299 37.5732V25.0488C29.0299 24.3007 29.2927 23.6639 29.8181 23.1384C30.3414 22.613 30.9782 22.3502 31.7285 22.3502C32.4789 22.3502 33.1157 22.613 33.6389 23.1384C34.1644 23.6639 34.4271 24.3007 34.4271 25.0488V37.5732C34.4271 38.3236 34.1644 38.9604 33.6389 39.4836C33.1134 40.0091 32.4766 40.2718 31.7285 40.2718C30.9804 40.2718 30.3436 40.0091 29.8181 39.4836C29.2927 38.9582 29.0299 38.3214 29.0299 37.5732ZM43.5482 41.895V11.6895C43.5482 10.9413 43.8098 10.3045 44.3331 9.77906C44.8586 9.25359 45.4954 8.99086 46.2435 8.99086C46.9938 8.99086 47.6306 9.25359 48.1539 9.77906C48.6793 10.3045 48.9421 10.9413 48.9421 11.6895V41.895C48.9421 42.7945 48.666 43.4692 48.1138 43.9189C47.5594 44.3687 46.9393 44.5936 46.2535 44.5936C45.5677 44.5936 44.9443 44.3687 44.3832 43.9189C43.8221 43.4692 43.5438 42.7945 43.5482 41.895ZM14.388 49.0489V38.4082C14.388 37.6601 14.6497 37.0233 15.1729 36.4978C15.6984 35.9723 16.3363 35.7096 17.0866 35.7096C17.837 35.7096 18.4738 35.9723 18.997 36.4978C19.5203 37.0233 19.7819 37.6601 19.7819 38.4082V49.0523C19.7819 49.9518 19.5058 50.6254 18.9536 51.0729C18.4014 51.5227 17.7813 51.7475 17.0933 51.7475C16.4075 51.7475 15.7841 51.5227 15.223 51.0729C14.6664 50.6254 14.388 49.9518 14.388 49.0523M18.0118 68.6338C17.2659 68.6338 16.7504 68.2942 16.4654 67.6151C16.1804 66.9383 16.3096 66.3271 16.8529 65.7816L29.905 52.7328C30.3881 52.2474 30.9837 51.9769 31.6918 51.9212C32.3998 51.8655 33.0288 52.0804 33.5788 52.5658L43.5482 61.1325L66.1022 38.5752H60.1172C59.6429 38.5752 59.2466 38.4149 58.9282 38.0943C58.6098 37.7736 58.4495 37.3762 58.4473 36.9019C58.445 36.4277 58.6053 36.0313 58.9282 35.7129C59.2511 35.3945 59.6474 35.2354 60.1172 35.2354H69.108C69.874 35.2354 70.5152 35.4936 71.0318 36.0102C71.5484 36.5268 71.8066 37.168 71.8066 37.9339V46.9248C71.8066 47.3991 71.6463 47.7954 71.3257 48.1138C71.0051 48.4322 70.6076 48.5925 70.1334 48.5947C69.6591 48.597 69.2628 48.4366 68.9444 48.1138C68.626 47.7909 68.4668 47.3946 68.4668 46.9248V40.9398L45.4085 63.9981C44.9254 64.4813 44.3297 64.7507 43.6217 64.8063C42.9137 64.862 42.2846 64.6471 41.7347 64.1617L31.7653 55.595L19.2175 68.1462C19.075 68.2798 18.8957 68.3944 18.6797 68.4902C18.4638 68.5859 18.2411 68.6338 18.0118 68.6338Z" fill="var(--fill-0, #333333)"/>
</g>
</svg>
