<svg preserveAspectRatio="none" width="100%" height="100%" overflow="visible" style="display: block;" viewBox="0 0 80.1562 80.1562" fill="none" xmlns="http://www.w3.org/2000/svg">
<g id="material-symbols-light:mode-of-travel-rounded">
<path id="Vector" d="M16.6992 33.2047C16.6992 26.3914 19.0427 20.825 23.7296 16.5055C28.4165 12.1815 33.8437 10.0195 40.0113 10.0195C47.9802 10.0195 53.9652 12.8283 57.9663 18.446C61.9675 24.0636 63.7543 30.662 63.3268 38.2412L70.12 31.1908C70.4317 30.8769 70.8158 30.7199 71.2723 30.7199C71.7243 30.7199 72.1061 30.8757 72.4178 31.1875C72.7296 31.4992 72.8865 31.8721 72.8887 32.3063C72.891 32.7405 72.7351 33.1134 72.4212 33.4252L63.6073 42.5563C63.0685 43.0951 62.4183 43.3645 61.6569 43.3645C60.8954 43.3645 60.2441 43.0951 59.703 42.5563L50.8925 33.4252C50.5786 33.1134 50.4216 32.7405 50.4216 32.3063C50.4216 31.8721 50.5775 31.5003 50.8892 31.1908C51.2009 30.8769 51.585 30.7199 52.0414 30.7199C52.4979 30.7199 52.8809 30.8757 53.1904 31.1875L59.9869 38.2412C60.5436 30.633 58.8981 24.5835 55.0506 20.0925C51.2054 15.6037 46.1923 13.3594 40.0113 13.3594C34.3915 13.3594 29.6578 15.3098 25.8103 19.2108C21.9628 23.1117 20.0391 27.8476 20.0391 33.4185C20.0391 37.9518 21.5197 42.6954 24.4811 47.6496C27.4424 52.6037 32.107 58.1344 38.475 64.2419C38.858 64.6271 39.3389 64.8297 39.9178 64.8497C40.4967 64.8698 40.9788 64.6883 41.364 64.3054C42.4772 63.2166 43.5493 62.1567 44.5802 61.1258C45.6111 60.0949 46.4505 59.2344 47.0985 58.5441C46.691 57.9741 46.3615 57.3618 46.1099 56.7072C45.8583 56.0526 45.7314 55.3479 45.7291 54.5931C45.7291 52.7272 46.376 51.1475 47.6696 49.8538C48.9632 48.5602 50.5441 47.9145 52.4122 47.9167C54.2803 47.919 55.8489 48.5647 57.118 49.8538C58.3871 51.143 59.0228 52.7239 59.0251 54.5964C59.0251 56.4601 58.3894 58.0287 57.118 59.3023C55.8466 60.5736 54.2769 61.2093 52.4088 61.2093C51.9212 61.2093 51.4536 61.1704 51.0061 61.0924C50.5608 61.0167 50.121 60.8798 49.6869 60.6816C48.7695 61.6546 47.8121 62.6454 46.8146 63.6541C45.8126 64.6605 44.7706 65.678 43.6885 66.7067C43.1608 67.1899 42.5685 67.5495 41.9117 67.7855C41.2549 68.0215 40.6003 68.1395 39.9479 68.1395C39.2955 68.1395 38.642 68.0215 37.9874 67.7855C37.3328 67.5495 36.7617 67.1899 36.274 66.7067C29.5498 60.3053 24.6069 54.3905 21.4451 48.9621C18.2834 43.5337 16.7014 38.2813 16.6992 33.2047Z" fill="var(--fill-0, #333333)"/>
</g>
</svg>
