<svg preserveAspectRatio="none" width="100%" height="100%" overflow="visible" style="display: block;" viewBox="0 0 80.1562 80.1562" fill="none" xmlns="http://www.w3.org/2000/svg">
<g id="material-symbols-light:precision-manufacturing-outline">
<path id="Vector" d="M20.9223 17.2532C22.6943 17.2589 24.2491 17.9119 25.5092 19.1663C26.7732 20.4245 27.4272 21.9838 27.4272 23.763C27.4272 25.5402 26.7735 27.0973 25.5131 28.3567L25.5141 28.3577C24.2558 29.6217 22.6966 30.2757 20.9174 30.2757C19.1386 30.2757 17.5786 29.6223 16.3169 28.3606L16.3149 28.3596C15.0572 27.0991 14.4077 25.5397 14.4077 23.763C14.4077 21.9878 15.0579 20.4302 16.3149 19.1702L16.3169 19.1692C17.5818 17.9042 19.1427 17.2474 20.9223 17.2532Z" stroke="var(--stroke-0, #333333)" stroke-width="3"/>
<path id="Vector_2" d="M15.911 65L55.9858 64.9966M26.004 59.6028L17.3638 31.331M29.1201 23.0964H41.3439M65.3273 19.9755L52.6627 14.0774L44.6871 21.425V26.1008L52.6627 33.2815L65.3273 27.3867M27.006 29.4807L43.1942 59.6061" stroke="var(--stroke-0, #333333)" stroke-width="3" stroke-linecap="round"/>
</g>
</svg>
