<svg preserveAspectRatio="none" width="100%" height="100%" overflow="visible" style="display: block;" viewBox="0 0 19.8 19.8" fill="none" xmlns="http://www.w3.org/2000/svg">
<g id="mdi:linkedin">
<path id="Vector" d="M15.675 2.475C16.1126 2.475 16.5323 2.64884 16.8417 2.95827C17.1512 3.26771 17.325 3.68739 17.325 4.125V15.675C17.325 16.1126 17.1512 16.5323 16.8417 16.8417C16.5323 17.1512 16.1126 17.325 15.675 17.325H4.125C3.68739 17.325 3.26771 17.1512 2.95827 16.8417C2.64884 16.5323 2.475 16.1126 2.475 15.675V4.125C2.475 3.68739 2.64884 3.26771 2.95827 2.95827C3.26771 2.64884 3.68739 2.475 4.125 2.475H15.675ZM15.2625 15.2625V10.89C15.2625 10.1767 14.9791 9.49261 14.4748 8.98824C13.9704 8.48386 13.2863 8.2005 12.573 8.2005C11.8717 8.2005 11.055 8.6295 10.659 9.273V8.35725H8.35725V15.2625H10.659V11.1952C10.659 10.56 11.1705 10.0402 11.8057 10.0402C12.1121 10.0402 12.4059 10.1619 12.6225 10.3785C12.8391 10.5951 12.9607 10.8889 12.9607 11.1952V15.2625H15.2625ZM5.676 7.062C6.04359 7.062 6.39612 6.91598 6.65605 6.65605C6.91598 6.39612 7.062 6.04359 7.062 5.676C7.062 4.90875 6.44325 4.28175 5.676 4.28175C5.30622 4.28175 4.95159 4.42864 4.69012 4.69012C4.42864 4.95159 4.28175 5.30622 4.28175 5.676C4.28175 6.44325 4.90875 7.062 5.676 7.062ZM6.82275 15.2625V8.35725H4.5375V15.2625H6.82275Z" fill="var(--fill-0, #313131)"/>
</g>
</svg>
