<svg preserveAspectRatio="none" width="100%" height="100%" overflow="visible" style="display: block;" viewBox="0 0 18.8123 39.8334" fill="none" xmlns="http://www.w3.org/2000/svg">
<path id="Vector" d="M7.99668 4.83797L2.40084 10.4338C2.13366 10.6919 1.7758 10.8346 1.40436 10.8314C1.03291 10.8282 0.677594 10.6792 0.414932 10.4165C0.152271 10.1539 0.00328131 9.79856 5.35537e-05 9.42712C-0.00317421 9.05567 0.139618 8.69782 0.397675 8.43063L8.41176 0.416549C8.54302 0.284537 8.69908 0.179775 8.87097 0.108289C9.04286 0.0368016 9.22718 0 9.41334 0C9.5995 0 9.78383 0.0368016 9.95572 0.108289C10.1276 0.179775 10.2837 0.284537 10.4149 0.416549L18.429 8.43063C18.6807 8.69902 18.8181 9.0548 18.8121 9.42268C18.8061 9.79057 18.6573 10.1417 18.397 10.4018C18.1367 10.6618 17.7855 10.8105 17.4176 10.8162C17.0497 10.8219 16.6941 10.6843 16.4258 10.4324L10.83 4.83655L10.83 38.4167C10.83 38.7924 10.6808 39.1528 10.4151 39.4185C10.1494 39.6841 9.78907 39.8334 9.41334 39.8334C9.03762 39.8334 8.67729 39.6841 8.41161 39.4185C8.14593 39.1528 7.99668 38.7924 7.99668 38.4167L7.99668 4.83797Z" fill="var(--fill-0, #00021D)"/>
</svg>
